<mxfile host="app.diagrams.net" modified="2021-06-06T07:12:34.577Z" agent="5.0 (Windows NT 10.0; WOW64) AppleWebKit/537.36 (KHTML, like Gecko) Chrome/84.0.4147.89 Safari/537.36 SLBrowser/7.0.0.5211 SLBChan/30" etag="0ZT2e_tcITuzim8YTI5M" version="14.7.6" type="github" pages="2">
  <diagram id="prtHgNgQTEPvFCAcTncT" name="Page-1">
    <mxGraphModel dx="1822" dy="796" grid="0" gridSize="10" guides="1" tooltips="1" connect="1" arrows="1" fold="1" page="0" pageScale="1" pageWidth="827" pageHeight="1169" math="0" shadow="1">
      <root>
        <mxCell id="0" />
        <mxCell id="1" parent="0" />
        <mxCell id="J_e2ZOj2AzXDhLbVWYpQ-2" value="" style="points=[];aspect=fixed;html=1;align=center;shadow=0;dashed=0;image;image=img/lib/allied_telesis/computer_and_terminals/Server_Desktop.svg;direction=east;" parent="1" vertex="1">
          <mxGeometry x="324" y="54" width="176.71" height="224" as="geometry" />
        </mxCell>
        <mxCell id="J_e2ZOj2AzXDhLbVWYpQ-27" value="" style="points=[];aspect=fixed;html=1;align=center;shadow=0;dashed=0;image;image=img/lib/allied_telesis/computer_and_terminals/Server_Desktop.svg;direction=east;" parent="1" vertex="1">
          <mxGeometry x="1106" y="51" width="176.71" height="224" as="geometry" />
        </mxCell>
        <mxCell id="J_e2ZOj2AzXDhLbVWYpQ-42" value="" style="points=[];aspect=fixed;html=1;align=center;shadow=0;dashed=0;image;image=img/lib/allied_telesis/computer_and_terminals/Server_Desktop.svg;direction=east;" parent="1" vertex="1">
          <mxGeometry x="739" y="508" width="176.71" height="224" as="geometry" />
        </mxCell>
        <mxCell id="J_e2ZOj2AzXDhLbVWYpQ-80" value="" style="points=[];aspect=fixed;html=1;align=center;shadow=0;dashed=0;image;image=img/lib/allied_telesis/computer_and_terminals/Server_Desktop.svg;direction=east;" parent="1" vertex="1">
          <mxGeometry x="2883" y="1057" width="176.71" height="224" as="geometry" />
        </mxCell>
        <mxCell id="J_e2ZOj2AzXDhLbVWYpQ-81" value="" style="points=[];aspect=fixed;html=1;align=center;shadow=0;dashed=0;image;image=img/lib/allied_telesis/computer_and_terminals/Personal_Computer.svg;direction=east;" parent="1" vertex="1">
          <mxGeometry x="2600" y="1395" width="128.39" height="174" as="geometry" />
        </mxCell>
        <mxCell id="J_e2ZOj2AzXDhLbVWYpQ-82" value="" style="points=[];aspect=fixed;html=1;align=center;shadow=0;dashed=0;image;image=img/lib/allied_telesis/computer_and_terminals/Personal_Computer.svg;direction=east;" parent="1" vertex="1">
          <mxGeometry x="2832.81" y="1401" width="128.39" height="174" as="geometry" />
        </mxCell>
        <mxCell id="J_e2ZOj2AzXDhLbVWYpQ-83" value="" style="points=[];aspect=fixed;html=1;align=center;shadow=0;dashed=0;image;image=img/lib/allied_telesis/computer_and_terminals/Personal_Computer.svg;direction=east;" parent="1" vertex="1">
          <mxGeometry x="3063" y="1395" width="128.39" height="174" as="geometry" />
        </mxCell>
        <mxCell id="J_e2ZOj2AzXDhLbVWYpQ-84" value="" style="points=[];aspect=fixed;html=1;align=center;shadow=0;dashed=0;image;image=img/lib/allied_telesis/computer_and_terminals/Personal_Computer.svg;direction=east;" parent="1" vertex="1">
          <mxGeometry x="3267" y="1399" width="128.39" height="174" as="geometry" />
        </mxCell>
        <mxCell id="J_e2ZOj2AzXDhLbVWYpQ-85" value="" style="endArrow=classic;html=1;" parent="1" source="J_e2ZOj2AzXDhLbVWYpQ-82" target="J_e2ZOj2AzXDhLbVWYpQ-80" edge="1">
          <mxGeometry width="50" height="50" relative="1" as="geometry">
            <mxPoint x="2972" y="1424" as="sourcePoint" />
            <mxPoint x="3022" y="1374" as="targetPoint" />
          </mxGeometry>
        </mxCell>
        <mxCell id="J_e2ZOj2AzXDhLbVWYpQ-86" value="" style="endArrow=classic;html=1;" parent="1" source="J_e2ZOj2AzXDhLbVWYpQ-81" target="J_e2ZOj2AzXDhLbVWYpQ-80" edge="1">
          <mxGeometry width="50" height="50" relative="1" as="geometry">
            <mxPoint x="2862.0039846153845" y="1440" as="sourcePoint" />
            <mxPoint x="2894.6321692307693" y="1314" as="targetPoint" />
          </mxGeometry>
        </mxCell>
        <mxCell id="J_e2ZOj2AzXDhLbVWYpQ-87" value="" style="endArrow=classic;html=1;" parent="1" source="J_e2ZOj2AzXDhLbVWYpQ-83" target="J_e2ZOj2AzXDhLbVWYpQ-80" edge="1">
          <mxGeometry width="50" height="50" relative="1" as="geometry">
            <mxPoint x="2928.7239846153843" y="1474" as="sourcePoint" />
            <mxPoint x="2961.3521692307695" y="1348" as="targetPoint" />
          </mxGeometry>
        </mxCell>
        <mxCell id="J_e2ZOj2AzXDhLbVWYpQ-88" value="" style="endArrow=classic;html=1;" parent="1" source="J_e2ZOj2AzXDhLbVWYpQ-84" target="J_e2ZOj2AzXDhLbVWYpQ-80" edge="1">
          <mxGeometry width="50" height="50" relative="1" as="geometry">
            <mxPoint x="2938.7239846153843" y="1484" as="sourcePoint" />
            <mxPoint x="2971.3521692307695" y="1358" as="targetPoint" />
          </mxGeometry>
        </mxCell>
        <mxCell id="J_e2ZOj2AzXDhLbVWYpQ-90" value="&lt;font style=&quot;font-size: 22px&quot;&gt;服务器&lt;/font&gt;" style="text;html=1;strokeColor=none;fillColor=none;align=center;verticalAlign=middle;whiteSpace=wrap;rounded=0;fontSize=16;" parent="1" vertex="1">
          <mxGeometry x="3051" y="1185" width="100" height="22" as="geometry" />
        </mxCell>
        <mxCell id="J_e2ZOj2AzXDhLbVWYpQ-91" value="&lt;font style=&quot;font-size: 22px&quot;&gt;客户端1&lt;/font&gt;" style="text;html=1;strokeColor=none;fillColor=none;align=center;verticalAlign=middle;whiteSpace=wrap;rounded=0;fontSize=16;" parent="1" vertex="1">
          <mxGeometry x="2605" y="1595" width="107" height="17" as="geometry" />
        </mxCell>
        <mxCell id="J_e2ZOj2AzXDhLbVWYpQ-92" value="&lt;font style=&quot;font-size: 22px&quot;&gt;客户端2&lt;/font&gt;" style="text;html=1;strokeColor=none;fillColor=none;align=center;verticalAlign=middle;whiteSpace=wrap;rounded=0;fontSize=16;" parent="1" vertex="1">
          <mxGeometry x="2862" y="1600" width="89" height="17" as="geometry" />
        </mxCell>
        <mxCell id="J_e2ZOj2AzXDhLbVWYpQ-93" value="&lt;font style=&quot;font-size: 22px&quot;&gt;客户端3&lt;/font&gt;" style="text;html=1;strokeColor=none;fillColor=none;align=center;verticalAlign=middle;whiteSpace=wrap;rounded=0;fontSize=16;" parent="1" vertex="1">
          <mxGeometry x="3098" y="1595" width="97" height="17" as="geometry" />
        </mxCell>
        <mxCell id="J_e2ZOj2AzXDhLbVWYpQ-94" value="&lt;font style=&quot;font-size: 22px&quot;&gt;客户端4&lt;/font&gt;" style="text;html=1;strokeColor=none;fillColor=none;align=center;verticalAlign=middle;whiteSpace=wrap;rounded=0;fontSize=16;" parent="1" vertex="1">
          <mxGeometry x="3301" y="1600" width="97" height="17" as="geometry" />
        </mxCell>
        <mxCell id="J_e2ZOj2AzXDhLbVWYpQ-95" value="" style="shape=image;html=1;verticalAlign=top;verticalLabelPosition=bottom;imageAspect=0;aspect=fixed;image=https://cdn2.iconfinder.com/data/icons/metro-ui-dock/128/Java.png;rounded=0;sketch=0;" parent="1" vertex="1">
          <mxGeometry x="382" y="92" width="78" height="78" as="geometry" />
        </mxCell>
        <mxCell id="J_e2ZOj2AzXDhLbVWYpQ-111" value="" style="shape=image;html=1;verticalAlign=top;verticalLabelPosition=bottom;imageAspect=0;aspect=fixed;image=https://cdn2.iconfinder.com/data/icons/metro-ui-dock/128/Java.png;rounded=0;sketch=0;" parent="1" vertex="1">
          <mxGeometry x="1183" y="99" width="78" height="78" as="geometry" />
        </mxCell>
        <mxCell id="J_e2ZOj2AzXDhLbVWYpQ-112" value="" style="shape=image;html=1;verticalAlign=top;verticalLabelPosition=bottom;imageAspect=0;aspect=fixed;image=https://cdn2.iconfinder.com/data/icons/metro-ui-dock/128/Java.png;rounded=0;sketch=0;" parent="1" vertex="1">
          <mxGeometry x="809" y="559" width="78" height="78" as="geometry" />
        </mxCell>
        <mxCell id="J_e2ZOj2AzXDhLbVWYpQ-116" value="" style="points=[];aspect=fixed;html=1;align=center;shadow=0;dashed=0;image;image=img/lib/allied_telesis/computer_and_terminals/Server_Desktop.svg;direction=east;" parent="1" vertex="1">
          <mxGeometry x="478" y="312" width="176.71" height="224" as="geometry" />
        </mxCell>
        <mxCell id="J_e2ZOj2AzXDhLbVWYpQ-117" value="" style="shape=image;html=1;verticalAlign=top;verticalLabelPosition=bottom;imageAspect=0;aspect=fixed;image=https://cdn2.iconfinder.com/data/icons/metro-ui-dock/128/Java.png;rounded=0;sketch=0;" parent="1" vertex="1">
          <mxGeometry x="548" y="363" width="78" height="78" as="geometry" />
        </mxCell>
        <mxCell id="J_e2ZOj2AzXDhLbVWYpQ-118" value="" style="points=[];aspect=fixed;html=1;align=center;shadow=0;dashed=0;image;image=img/lib/allied_telesis/computer_and_terminals/Server_Desktop.svg;direction=east;" parent="1" vertex="1">
          <mxGeometry x="1163" y="428" width="176.71" height="224" as="geometry" />
        </mxCell>
        <mxCell id="J_e2ZOj2AzXDhLbVWYpQ-119" value="" style="shape=image;html=1;verticalAlign=top;verticalLabelPosition=bottom;imageAspect=0;aspect=fixed;image=https://cdn2.iconfinder.com/data/icons/metro-ui-dock/128/Java.png;rounded=0;sketch=0;" parent="1" vertex="1">
          <mxGeometry x="1233" y="479" width="78" height="78" as="geometry" />
        </mxCell>
        <mxCell id="J_e2ZOj2AzXDhLbVWYpQ-125" value="" style="points=[];aspect=fixed;html=1;align=center;shadow=0;dashed=0;image;image=img/lib/allied_telesis/computer_and_terminals/Server_Desktop.svg;direction=east;" parent="1" vertex="1">
          <mxGeometry x="793" y="182" width="176.71" height="224" as="geometry" />
        </mxCell>
        <mxCell id="J_e2ZOj2AzXDhLbVWYpQ-126" value="" style="shape=image;html=1;verticalAlign=top;verticalLabelPosition=bottom;imageAspect=0;aspect=fixed;image=https://cdn2.iconfinder.com/data/icons/metro-ui-dock/128/Java.png;rounded=0;sketch=0;" parent="1" vertex="1">
          <mxGeometry x="863" y="233" width="78" height="78" as="geometry" />
        </mxCell>
        <mxCell id="J_e2ZOj2AzXDhLbVWYpQ-128" value="" style="points=[];aspect=fixed;html=1;align=center;shadow=0;dashed=0;image;image=img/lib/allied_telesis/computer_and_terminals/Server_Desktop.svg;direction=east;" parent="1" vertex="1">
          <mxGeometry x="310" y="517" width="176.71" height="224" as="geometry" />
        </mxCell>
        <mxCell id="J_e2ZOj2AzXDhLbVWYpQ-129" value="" style="shape=image;html=1;verticalAlign=top;verticalLabelPosition=bottom;imageAspect=0;aspect=fixed;image=https://cdn2.iconfinder.com/data/icons/metro-ui-dock/128/Java.png;rounded=0;sketch=0;" parent="1" vertex="1">
          <mxGeometry x="380" y="568" width="78" height="78" as="geometry" />
        </mxCell>
        <mxCell id="J_e2ZOj2AzXDhLbVWYpQ-130" value="" style="shape=image;html=1;verticalAlign=top;verticalLabelPosition=bottom;imageAspect=0;aspect=fixed;image=https://cdn2.iconfinder.com/data/icons/metro-ui-dock/128/Java.png;rounded=0;sketch=0;" parent="1" vertex="1">
          <mxGeometry x="2953" y="1104" width="78" height="78" as="geometry" />
        </mxCell>
        <mxCell id="J_e2ZOj2AzXDhLbVWYpQ-131" value="&lt;font style=&quot;font-size: 32px&quot;&gt;计算机硬件&lt;/font&gt;" style="rounded=1;whiteSpace=wrap;html=1;sketch=0;fillColor=#e1d5e7;strokeColor=#9673a6;" parent="1" vertex="1">
          <mxGeometry x="-48" y="1376" width="1067" height="96" as="geometry" />
        </mxCell>
        <mxCell id="J_e2ZOj2AzXDhLbVWYpQ-132" value="&lt;font style=&quot;font-size: 32px&quot;&gt;操作系统：Linux、Windows、MacOS&lt;/font&gt;" style="rounded=1;whiteSpace=wrap;html=1;sketch=0;fillColor=#d5e8d4;strokeColor=#82b366;" parent="1" vertex="1">
          <mxGeometry x="-53" y="1272" width="1067" height="96" as="geometry" />
        </mxCell>
        <mxCell id="J_e2ZOj2AzXDhLbVWYpQ-133" value="&lt;font style=&quot;font-size: 32px&quot;&gt;C语言和C++&lt;/font&gt;" style="rounded=1;whiteSpace=wrap;html=1;sketch=0;fillColor=#f8cecc;strokeColor=#b85450;" parent="1" vertex="1">
          <mxGeometry x="-53" y="1172" width="553" height="96" as="geometry" />
        </mxCell>
        <mxCell id="J_e2ZOj2AzXDhLbVWYpQ-136" value="&lt;span style=&quot;font-size: 32px&quot;&gt;JVM&lt;/span&gt;" style="rounded=1;whiteSpace=wrap;html=1;sketch=0;fillColor=#f8cecc;strokeColor=#b85450;" parent="1" vertex="1">
          <mxGeometry x="508" y="1172" width="507" height="96" as="geometry" />
        </mxCell>
        <mxCell id="J_e2ZOj2AzXDhLbVWYpQ-137" value="&lt;span style=&quot;font-size: 32px&quot;&gt;Java&lt;/span&gt;" style="rounded=1;whiteSpace=wrap;html=1;sketch=0;fillColor=#ffe6cc;strokeColor=#d79b00;" parent="1" vertex="1">
          <mxGeometry x="507" y="1068" width="507" height="96" as="geometry" />
        </mxCell>
        <mxCell id="Idzp_B0AjTieMuo_t976-1" value="&lt;font style=&quot;font-size: 32px&quot;&gt;&lt;strike&gt;运算符重载&lt;/strike&gt;&lt;/font&gt;" style="rounded=1;whiteSpace=wrap;html=1;fillColor=#ffe6cc;strokeColor=#d79b00;" parent="1" vertex="1">
          <mxGeometry x="175" y="1954.5" width="211" height="80" as="geometry" />
        </mxCell>
        <mxCell id="Idzp_B0AjTieMuo_t976-5" value="&lt;font style=&quot;font-size: 32px&quot;&gt;&lt;strike&gt;&lt;span style=&quot;color: rgb(51 , 51 , 51) ; font-family: &amp;#34;helvetica neue&amp;#34; , &amp;#34;helvetica&amp;#34; , &amp;#34;hiragino sans gb&amp;#34; , &amp;#34;microsoft yahei&amp;#34; , &amp;#34;arial&amp;#34; , sans-serif ; letter-spacing: 2px ; text-align: justify ; word-spacing: 2px&quot;&gt;​闭包和混&lt;/span&gt;&lt;span style=&quot;color: rgb(51 , 51 , 51) ; font-family: &amp;#34;helvetica neue&amp;#34; , &amp;#34;helvetica&amp;#34; , &amp;#34;hiragino sans gb&amp;#34; , &amp;#34;microsoft yahei&amp;#34; , &amp;#34;arial&amp;#34; , sans-serif ; letter-spacing: 2px ; text-align: justify ; word-spacing: 2px&quot;&gt;入特性&lt;/span&gt;&lt;/strike&gt;&lt;/font&gt;" style="rounded=1;whiteSpace=wrap;html=1;fillColor=#f5f5f5;strokeColor=#666666;fontColor=#333333;" parent="1" vertex="1">
          <mxGeometry x="583" y="2155" width="289" height="80" as="geometry" />
        </mxCell>
        <mxCell id="Idzp_B0AjTieMuo_t976-7" value="&lt;div style=&quot;text-align: justify&quot;&gt;&lt;span style=&quot;font-size: 32px ; letter-spacing: 2px ; word-spacing: 2px&quot;&gt;&lt;font color=&quot;#333333&quot; face=&quot;helvetica neue, helvetica, hiragino sans gb, microsoft yahei, arial, sans-serif&quot;&gt;单继承&lt;/font&gt;&lt;/span&gt;&lt;/div&gt;" style="rounded=1;whiteSpace=wrap;html=1;fillColor=#e1d5e7;strokeColor=#9673a6;" parent="1" vertex="1">
          <mxGeometry x="462" y="1957.5" width="226" height="77" as="geometry" />
        </mxCell>
        <mxCell id="Idzp_B0AjTieMuo_t976-8" value="&lt;div style=&quot;text-align: justify&quot;&gt;&lt;span style=&quot;font-size: 32px ; letter-spacing: 2px ; word-spacing: 2px&quot;&gt;&lt;font color=&quot;#333333&quot; face=&quot;helvetica neue, helvetica, hiragino sans gb, microsoft yahei, arial, sans-serif&quot;&gt;笨重&lt;/font&gt;&lt;/span&gt;&lt;/div&gt;" style="rounded=1;whiteSpace=wrap;html=1;fillColor=#dae8fc;strokeColor=#6c8ebf;" parent="1" vertex="1">
          <mxGeometry x="330.5" y="2100" width="181" height="182" as="geometry" />
        </mxCell>
        <mxCell id="Idzp_B0AjTieMuo_t976-12" value="&lt;div style=&quot;text-align: justify&quot;&gt;&lt;span style=&quot;font-size: 32px ; letter-spacing: 2px ; word-spacing: 2px&quot;&gt;&lt;font color=&quot;#333333&quot; face=&quot;helvetica neue, helvetica, hiragino sans gb, microsoft yahei, arial, sans-serif&quot;&gt;运行缓慢&lt;/font&gt;&lt;/span&gt;&lt;/div&gt;" style="rounded=1;whiteSpace=wrap;html=1;fillColor=#d5e8d4;strokeColor=#82b366;" parent="1" vertex="1">
          <mxGeometry x="8" y="2143" width="226" height="77" as="geometry" />
        </mxCell>
        <mxCell id="Idzp_B0AjTieMuo_t976-13" value="&lt;font style=&quot;font-size: 26px&quot;&gt;易于使用&lt;/font&gt;" style="ellipse;shape=cloud;whiteSpace=wrap;html=1;fillColor=#f5f5f5;strokeColor=#666666;fontColor=#333333;" parent="1" vertex="1">
          <mxGeometry x="211" y="2468" width="199" height="143" as="geometry" />
        </mxCell>
        <mxCell id="Idzp_B0AjTieMuo_t976-14" value="&lt;font style=&quot;font-size: 26px&quot;&gt;面向对象&lt;/font&gt;" style="ellipse;shape=cloud;whiteSpace=wrap;html=1;fillColor=#f5f5f5;strokeColor=#666666;fontColor=#333333;" parent="1" vertex="1">
          <mxGeometry x="553" y="2477" width="199" height="143" as="geometry" />
        </mxCell>
        <mxCell id="Idzp_B0AjTieMuo_t976-15" value="&lt;font style=&quot;font-size: 26px&quot;&gt;支持联网&lt;/font&gt;" style="ellipse;shape=cloud;whiteSpace=wrap;html=1;fillColor=#f5f5f5;strokeColor=#666666;fontColor=#333333;" parent="1" vertex="1">
          <mxGeometry x="301.71" y="2587" width="199" height="143" as="geometry" />
        </mxCell>
        <mxCell id="Idzp_B0AjTieMuo_t976-16" value="&lt;font style=&quot;font-size: 26px&quot;&gt;安全执行&lt;br&gt;远程代码&lt;/font&gt;" style="ellipse;shape=cloud;whiteSpace=wrap;html=1;fillColor=#f5f5f5;strokeColor=#666666;fontColor=#333333;" parent="1" vertex="1">
          <mxGeometry x="480" y="2595" width="199" height="143" as="geometry" />
        </mxCell>
        <mxCell id="Idzp_B0AjTieMuo_t976-17" value="&lt;font style=&quot;font-size: 26px&quot;&gt;跨平台&lt;/font&gt;" style="ellipse;shape=cloud;whiteSpace=wrap;html=1;fillColor=#f5f5f5;strokeColor=#666666;fontColor=#333333;" parent="1" vertex="1">
          <mxGeometry x="382" y="2468" width="199" height="143" as="geometry" />
        </mxCell>
        <mxCell id="Idzp_B0AjTieMuo_t976-18" value="&lt;span style=&quot;color: rgb(32 , 33 , 34) ; font-family: sans-serif ; text-align: left&quot;&gt;&lt;font style=&quot;font-size: 16px&quot;&gt;2010年11月，由于Oracle公司对于Java社区的不友善，因此Apache扬言将退出JCP&lt;/font&gt;&lt;/span&gt;" style="rounded=0;whiteSpace=wrap;html=1;shadow=0;comic=1;fillColor=#f8cecc;strokeColor=#b85450;" parent="1" vertex="1">
          <mxGeometry x="182" y="2892" width="603" height="59" as="geometry" />
        </mxCell>
        <mxCell id="Idzp_B0AjTieMuo_t976-19" value="&lt;span style=&quot;color: rgb(32 , 33 , 34) ; font-family: sans-serif&quot;&gt;&lt;font style=&quot;font-size: 16px&quot;&gt;2011年7月28日，Oracle公司发布Java SE 7&lt;/font&gt;&lt;/span&gt;" style="rounded=0;whiteSpace=wrap;html=1;shadow=0;comic=1;fillColor=#fff2cc;strokeColor=#d6b656;" parent="1" vertex="1">
          <mxGeometry x="183.5" y="2961" width="604" height="57" as="geometry" />
        </mxCell>
        <mxCell id="Idzp_B0AjTieMuo_t976-20" value="&lt;span style=&quot;font-size: 16px ; color: rgb(32 , 33 , 34) ; font-family: sans-serif&quot;&gt;2014年3月18日，Oracle公司发表Java SE 8&lt;/span&gt;" style="rounded=0;whiteSpace=wrap;html=1;shadow=0;comic=1;fillColor=#d5e8d4;strokeColor=#82b366;" parent="1" vertex="1">
          <mxGeometry x="182" y="3028" width="604" height="57" as="geometry" />
        </mxCell>
        <mxCell id="Idzp_B0AjTieMuo_t976-21" value="&lt;span style=&quot;color: rgb(32 , 33 , 34) ; font-family: sans-serif&quot;&gt;&lt;font style=&quot;font-size: 16px&quot;&gt;2017年9月21日，Oracle公司发表Java SE 9&lt;/font&gt;&lt;/span&gt;" style="rounded=0;whiteSpace=wrap;html=1;shadow=0;comic=1;fillColor=#f5f5f5;strokeColor=#666666;fontColor=#333333;" parent="1" vertex="1">
          <mxGeometry x="182" y="3098" width="604" height="57" as="geometry" />
        </mxCell>
        <mxCell id="Idzp_B0AjTieMuo_t976-22" value="&lt;span style=&quot;color: rgb(32 , 33 , 34) ; font-family: sans-serif&quot;&gt;&lt;font style=&quot;font-size: 16px&quot;&gt;2018年3月21日，Oracle公司发表Java SE 10&lt;/font&gt;&lt;/span&gt;" style="rounded=0;whiteSpace=wrap;html=1;shadow=0;comic=1;fillColor=#e1d5e7;strokeColor=#9673a6;" parent="1" vertex="1">
          <mxGeometry x="182" y="3168" width="604" height="57" as="geometry" />
        </mxCell>
        <mxCell id="Idzp_B0AjTieMuo_t976-24" value="&lt;span style=&quot;font-size: 16px ; color: rgb(32 , 33 , 34) ; font-family: sans-serif&quot;&gt;2018年9月25日，Java SE 11发布&lt;/span&gt;" style="rounded=0;whiteSpace=wrap;html=1;shadow=0;comic=1;fillColor=#dae8fc;strokeColor=#6c8ebf;" parent="1" vertex="1">
          <mxGeometry x="181" y="3238" width="604" height="57" as="geometry" />
        </mxCell>
        <mxCell id="Idzp_B0AjTieMuo_t976-25" value="&lt;font style=&quot;font-size: 20px&quot;&gt;SE&lt;/font&gt;" style="triangle;whiteSpace=wrap;html=1;rounded=0;shadow=0;comic=1;direction=south;fillColor=#f8cecc;strokeColor=#b85450;" parent="1" vertex="1">
          <mxGeometry x="445.5" y="3526" width="80" height="60" as="geometry" />
        </mxCell>
        <mxCell id="Idzp_B0AjTieMuo_t976-26" value="&lt;font style=&quot;font-size: 20px&quot;&gt;EE&lt;/font&gt;" style="triangle;whiteSpace=wrap;html=1;rounded=0;shadow=0;comic=1;direction=north;fillColor=#fff2cc;strokeColor=#d6b656;" parent="1" vertex="1">
          <mxGeometry x="403" y="3464" width="80" height="60" as="geometry" />
        </mxCell>
        <mxCell id="Idzp_B0AjTieMuo_t976-27" value="&lt;font style=&quot;font-size: 20px&quot;&gt;ME&lt;/font&gt;" style="triangle;whiteSpace=wrap;html=1;rounded=0;shadow=0;comic=1;direction=north;fillColor=#dae8fc;strokeColor=#6c8ebf;" parent="1" vertex="1">
          <mxGeometry x="483" y="3464" width="80" height="60" as="geometry" />
        </mxCell>
        <mxCell id="Idzp_B0AjTieMuo_t976-45" style="edgeStyle=orthogonalEdgeStyle;rounded=0;orthogonalLoop=1;jettySize=auto;html=1;exitX=1;exitY=0.5;exitDx=0;exitDy=0;exitPerimeter=0;entryX=0;entryY=0.5;entryDx=0;entryDy=0;entryPerimeter=0;" parent="1" source="Idzp_B0AjTieMuo_t976-28" target="Idzp_B0AjTieMuo_t976-29" edge="1">
          <mxGeometry relative="1" as="geometry" />
        </mxCell>
        <mxCell id="Idzp_B0AjTieMuo_t976-28" value="*.java" style="verticalLabelPosition=bottom;html=1;verticalAlign=top;align=center;strokeColor=#82b366;fillColor=#d5e8d4;shape=mxgraph.azure.code_file;pointerEvents=1;rounded=0;shadow=0;comic=1;" parent="1" vertex="1">
          <mxGeometry x="503" y="3683" width="47.5" height="50" as="geometry" />
        </mxCell>
        <mxCell id="Idzp_B0AjTieMuo_t976-46" style="edgeStyle=orthogonalEdgeStyle;rounded=0;orthogonalLoop=1;jettySize=auto;html=1;exitX=1;exitY=0.5;exitDx=0;exitDy=0;exitPerimeter=0;entryX=0;entryY=0;entryDx=0;entryDy=33.5;entryPerimeter=0;" parent="1" source="Idzp_B0AjTieMuo_t976-29" target="Idzp_B0AjTieMuo_t976-30" edge="1">
          <mxGeometry relative="1" as="geometry" />
        </mxCell>
        <mxCell id="Idzp_B0AjTieMuo_t976-29" value="*.class" style="verticalLabelPosition=bottom;html=1;verticalAlign=top;align=center;strokeColor=#d6b656;fillColor=#fff2cc;shape=mxgraph.azure.code_file;pointerEvents=1;rounded=0;shadow=0;comic=1;" parent="1" vertex="1">
          <mxGeometry x="590" y="3683" width="47.5" height="50" as="geometry" />
        </mxCell>
        <mxCell id="Idzp_B0AjTieMuo_t976-30" value="类加载器" style="shape=cube;whiteSpace=wrap;html=1;boundedLbl=1;backgroundOutline=1;darkOpacity=0.05;darkOpacity2=0.1;rounded=0;shadow=0;comic=1;fillColor=#dae8fc;strokeColor=#6c8ebf;" parent="1" vertex="1">
          <mxGeometry x="677" y="3675" width="192" height="87" as="geometry" />
        </mxCell>
        <mxCell id="Idzp_B0AjTieMuo_t976-31" value="运行时数据区" style="shape=cube;whiteSpace=wrap;html=1;boundedLbl=1;backgroundOutline=1;darkOpacity=0.05;darkOpacity2=0.1;rounded=0;shadow=0;comic=1;fillColor=#ffe6cc;strokeColor=#d79b00;" parent="1" vertex="1">
          <mxGeometry x="511" y="3790" width="366" height="87" as="geometry" />
        </mxCell>
        <mxCell id="Idzp_B0AjTieMuo_t976-32" value="执行引擎" style="shape=cube;whiteSpace=wrap;html=1;boundedLbl=1;backgroundOutline=1;darkOpacity=0.05;darkOpacity2=0.1;rounded=0;shadow=0;comic=1;fillColor=#f5f5f5;strokeColor=#666666;fontColor=#333333;" parent="1" vertex="1">
          <mxGeometry x="511.5" y="3905" width="117" height="87" as="geometry" />
        </mxCell>
        <mxCell id="Idzp_B0AjTieMuo_t976-43" value="JNI" style="shape=cube;whiteSpace=wrap;html=1;boundedLbl=1;backgroundOutline=1;darkOpacity=0.05;darkOpacity2=0.1;rounded=0;shadow=0;comic=1;fillColor=#d5e8d4;strokeColor=#82b366;" parent="1" vertex="1">
          <mxGeometry x="640" y="3905" width="117" height="87" as="geometry" />
        </mxCell>
        <mxCell id="Idzp_B0AjTieMuo_t976-44" value="本地方法库" style="shape=cube;whiteSpace=wrap;html=1;boundedLbl=1;backgroundOutline=1;darkOpacity=0.05;darkOpacity2=0.1;rounded=0;shadow=0;comic=1;fillColor=#e1d5e7;strokeColor=#9673a6;" parent="1" vertex="1">
          <mxGeometry x="768.86" y="3908" width="117" height="87" as="geometry" />
        </mxCell>
        <mxCell id="Idzp_B0AjTieMuo_t976-61" value="编译器" style="text;html=1;strokeColor=none;fillColor=none;align=center;verticalAlign=middle;whiteSpace=wrap;rounded=0;shadow=0;comic=1;" parent="1" vertex="1">
          <mxGeometry x="550" y="3672" width="40" height="20" as="geometry" />
        </mxCell>
        <mxCell id="Idzp_B0AjTieMuo_t976-62" value="" style="endArrow=classic;html=1;" parent="1" edge="1">
          <mxGeometry width="50" height="50" relative="1" as="geometry">
            <mxPoint x="772.6600000000001" y="3762" as="sourcePoint" />
            <mxPoint x="772.6600000000001" y="3790" as="targetPoint" />
          </mxGeometry>
        </mxCell>
        <mxCell id="Idzp_B0AjTieMuo_t976-63" value="" style="endArrow=classic;html=1;" parent="1" edge="1">
          <mxGeometry width="50" height="50" relative="1" as="geometry">
            <mxPoint x="574.6599999999999" y="3877" as="sourcePoint" />
            <mxPoint x="574.6599999999999" y="3905" as="targetPoint" />
          </mxGeometry>
        </mxCell>
        <mxCell id="Idzp_B0AjTieMuo_t976-64" value="" style="endArrow=classic;html=1;" parent="1" edge="1">
          <mxGeometry width="50" height="50" relative="1" as="geometry">
            <mxPoint x="693.6600000000001" y="3877" as="sourcePoint" />
            <mxPoint x="693.6600000000001" y="3905" as="targetPoint" />
          </mxGeometry>
        </mxCell>
        <mxCell id="Idzp_B0AjTieMuo_t976-65" value="" style="endArrow=classic;html=1;" parent="1" edge="1">
          <mxGeometry width="50" height="50" relative="1" as="geometry">
            <mxPoint x="827.0100000000001" y="3880" as="sourcePoint" />
            <mxPoint x="827.0100000000001" y="3908" as="targetPoint" />
          </mxGeometry>
        </mxCell>
        <mxCell id="Idzp_B0AjTieMuo_t976-66" value="" style="endArrow=classic;html=1;" parent="1" edge="1">
          <mxGeometry width="50" height="50" relative="1" as="geometry">
            <mxPoint x="618.71" y="3958" as="sourcePoint" />
            <mxPoint x="654.71" y="3958" as="targetPoint" />
          </mxGeometry>
        </mxCell>
        <mxCell id="Idzp_B0AjTieMuo_t976-68" value="" style="endArrow=classic;html=1;" parent="1" edge="1">
          <mxGeometry width="50" height="50" relative="1" as="geometry">
            <mxPoint x="749" y="3958" as="sourcePoint" />
            <mxPoint x="785" y="3958" as="targetPoint" />
          </mxGeometry>
        </mxCell>
        <mxCell id="Idzp_B0AjTieMuo_t976-69" value="*.class" style="verticalLabelPosition=bottom;html=1;verticalAlign=top;align=center;strokeColor=#d6b656;fillColor=#fff2cc;shape=mxgraph.azure.code_file;pointerEvents=1;rounded=0;shadow=0;comic=1;" parent="1" vertex="1">
          <mxGeometry x="596" y="4151" width="153" height="160" as="geometry" />
        </mxCell>
        <mxCell id="Idzp_B0AjTieMuo_t976-70" value="&lt;b&gt;&lt;font style=&quot;font-size: 14px&quot;&gt;CAFE BABE&lt;/font&gt;&lt;/b&gt;" style="text;html=1;strokeColor=none;fillColor=none;align=center;verticalAlign=middle;whiteSpace=wrap;rounded=0;shadow=0;comic=1;" parent="1" vertex="1">
          <mxGeometry x="607" y="4166" width="99" height="20" as="geometry" />
        </mxCell>
        <mxCell id="Idzp_B0AjTieMuo_t976-93" value="&lt;font style=&quot;font-size: 43px&quot;&gt;JVM&lt;/font&gt;" style="ellipse;whiteSpace=wrap;html=1;aspect=fixed;rounded=0;shadow=1;comic=1;fillColor=#cdeb8b;strokeColor=#36393d;treeMoving=1;noLabel=0;portConstraintRotation=0;fixDash=0;backgroundOutline=0;resizeWidth=0;resizeHeight=0;treeFolding=0;sketch=1;" parent="1" vertex="1">
          <mxGeometry x="400" y="4708" width="285" height="285" as="geometry" />
        </mxCell>
        <mxCell id="Idzp_B0AjTieMuo_t976-94" value="&lt;font style=&quot;font-size: 20px&quot;&gt;JRuby&lt;/font&gt;&lt;span style=&quot;color: rgba(0 , 0 , 0 , 0) ; font-family: monospace ; font-size: 0px&quot;&gt;%3CmxGraphModel%3E%3Croot%3E%3CmxCell%20id%3D%220%22%2F%3E%3CmxCell%20id%3D%221%22%20parent%3D%220%22%2F%3E%3CmxCell%20id%3D%222%22%20value%3D%22%26lt%3Bfont%20style%3D%26quot%3Bfont-size%3A%2020px%26quot%3B%26gt%3BGroovy%26lt%3B%2Ffont%26gt%3B%22%20style%3D%22rounded%3D1%3BwhiteSpace%3Dwrap%3Bhtml%3D1%3Bshadow%3D0%3Bcomic%3D1%3BfillColor%3D%23cdeb8b%3BstrokeColor%3D%2336393d%3B%22%20vertex%3D%221%22%20parent%3D%221%22%3E%3CmxGeometry%20x%3D%22396%22%20y%3D%224552%22%20width%3D%22120%22%20height%3D%2260%22%20as%3D%22geometry%22%2F%3E%3C%2FmxCell%3E%3C%2Froot%3E%3C%2FmxGraphModel%3E&lt;/span&gt;" style="ellipse;whiteSpace=wrap;html=1;aspect=fixed;rounded=0;shadow=0;comic=1;fillColor=#d5e8d4;strokeColor=#82b366;sketch=1;" parent="1" vertex="1">
          <mxGeometry x="293" y="4862" width="81" height="81" as="geometry" />
        </mxCell>
        <mxCell id="Idzp_B0AjTieMuo_t976-95" value="&lt;span style=&quot;font-size: 20px&quot;&gt;Scala&lt;/span&gt;" style="ellipse;whiteSpace=wrap;html=1;aspect=fixed;rounded=0;shadow=0;comic=1;fillColor=#ffcccc;strokeColor=#36393d;sketch=1;" parent="1" vertex="1">
          <mxGeometry x="308" y="4732" width="81" height="81" as="geometry" />
        </mxCell>
        <mxCell id="Idzp_B0AjTieMuo_t976-96" value="&lt;span style=&quot;font-size: 20px&quot;&gt;Groovy&lt;/span&gt;" style="ellipse;whiteSpace=wrap;html=1;aspect=fixed;rounded=0;shadow=0;comic=1;fillColor=#bac8d3;strokeColor=#23445d;sketch=1;" parent="1" vertex="1">
          <mxGeometry x="357.85999999999996" y="4970" width="81" height="81" as="geometry" />
        </mxCell>
        <mxCell id="Idzp_B0AjTieMuo_t976-97" value="&lt;span style=&quot;font-size: 20px&quot;&gt;Kotlin&lt;/span&gt;" style="ellipse;whiteSpace=wrap;html=1;aspect=fixed;rounded=0;shadow=0;comic=1;fillColor=#b0e3e6;strokeColor=#0e8088;sketch=1;" parent="1" vertex="1">
          <mxGeometry x="495" y="5014" width="81" height="81" as="geometry" />
        </mxCell>
        <mxCell id="Idzp_B0AjTieMuo_t976-98" value="&lt;span style=&quot;font-size: 20px&quot;&gt;Clojure&lt;/span&gt;" style="ellipse;whiteSpace=wrap;html=1;aspect=fixed;rounded=0;shadow=0;comic=1;fillColor=#f8cecc;strokeColor=#b85450;sketch=1;perimeterSpacing=4;strokeWidth=1;" parent="1" vertex="1">
          <mxGeometry x="628.5" y="4978" width="81" height="81" as="geometry" />
        </mxCell>
        <mxCell id="Idzp_B0AjTieMuo_t976-99" value="&lt;span style=&quot;font-size: 20px&quot;&gt;Rhino&lt;/span&gt;" style="ellipse;whiteSpace=wrap;html=1;aspect=fixed;rounded=0;shadow=0;comic=1;fillColor=#ffff88;strokeColor=#36393d;sketch=1;fillStyle=auto;" parent="1" vertex="1">
          <mxGeometry x="706" y="4874" width="81" height="81" as="geometry" />
        </mxCell>
        <mxCell id="Idzp_B0AjTieMuo_t976-100" value="&lt;span style=&quot;font-size: 20px&quot;&gt;Fantom&lt;/span&gt;" style="ellipse;whiteSpace=wrap;html=1;aspect=fixed;rounded=0;shadow=0;comic=1;fillColor=#cce5ff;strokeColor=#36393d;sketch=1;" parent="1" vertex="1">
          <mxGeometry x="625" y="4636" width="81" height="81" as="geometry" />
        </mxCell>
        <mxCell id="Idzp_B0AjTieMuo_t976-101" value="&lt;span style=&quot;font-size: 20px&quot;&gt;Jython&lt;/span&gt;" style="ellipse;whiteSpace=wrap;html=1;aspect=fixed;rounded=0;shadow=0;comic=1;fillColor=#f9f7ed;strokeColor=#36393d;sketch=1;" parent="1" vertex="1">
          <mxGeometry x="498" y="4610" width="81" height="81" as="geometry" />
        </mxCell>
        <mxCell id="Idzp_B0AjTieMuo_t976-102" value="&lt;span style=&quot;font-size: 20px&quot;&gt;Ceylon&lt;/span&gt;" style="ellipse;whiteSpace=wrap;html=1;aspect=fixed;rounded=0;shadow=0;comic=1;sketch=1;" parent="1" vertex="1">
          <mxGeometry x="379.00000000000006" y="4636" width="81" height="81" as="geometry" />
        </mxCell>
        <mxCell id="Idzp_B0AjTieMuo_t976-104" value="&lt;span style=&quot;font-size: 20px&quot;&gt;Java&lt;/span&gt;" style="ellipse;whiteSpace=wrap;html=1;aspect=fixed;rounded=0;shadow=0;comic=1;fillColor=#ffcc99;strokeColor=#36393d;sketch=1;perimeterSpacing=4;strokeWidth=1;" parent="1" vertex="1">
          <mxGeometry x="679" y="4726" width="117" height="117" as="geometry" />
        </mxCell>
        <mxCell id="Idzp_B0AjTieMuo_t976-105" value="" style="shape=image;html=1;verticalAlign=top;verticalLabelPosition=bottom;imageAspect=0;aspect=fixed;image=https://cdn2.iconfinder.com/data/icons/metro-ui-dock/128/Java.png;rounded=0;sketch=0;" parent="1" vertex="1">
          <mxGeometry x="616" y="4186" width="24" height="24" as="geometry" />
        </mxCell>
      </root>
    </mxGraphModel>
  </diagram>
  <diagram id="53nCi289PsQuE4W-2JyY" name="第 2 页">
    <mxGraphModel dx="677" dy="-21" grid="0" gridSize="10" guides="1" tooltips="1" connect="1" arrows="1" fold="1" page="0" pageScale="1" pageWidth="827" pageHeight="1169" math="0" shadow="0">
      <root>
        <mxCell id="t4UdVl8dg5VgNK2BOj60-0" />
        <mxCell id="t4UdVl8dg5VgNK2BOj60-1" parent="t4UdVl8dg5VgNK2BOj60-0" />
        <mxCell id="t4UdVl8dg5VgNK2BOj60-2" value="网络层（IP）" style="rounded=1;whiteSpace=wrap;html=1;fillColor=#fff2cc;strokeColor=#d6b656;comic=1;" vertex="1" parent="t4UdVl8dg5VgNK2BOj60-1">
          <mxGeometry x="371" y="623" width="254" height="52" as="geometry" />
        </mxCell>
        <mxCell id="t4UdVl8dg5VgNK2BOj60-4" value="ICMP" style="text;html=1;strokeColor=none;fillColor=none;align=center;verticalAlign=middle;whiteSpace=wrap;rounded=0;" vertex="1" parent="t4UdVl8dg5VgNK2BOj60-1">
          <mxGeometry x="377" y="623" width="40" height="20" as="geometry" />
        </mxCell>
        <mxCell id="t4UdVl8dg5VgNK2BOj60-5" value="IGMP" style="text;html=1;strokeColor=none;fillColor=none;align=center;verticalAlign=middle;whiteSpace=wrap;rounded=0;" vertex="1" parent="t4UdVl8dg5VgNK2BOj60-1">
          <mxGeometry x="414" y="623" width="40" height="20" as="geometry" />
        </mxCell>
        <mxCell id="t4UdVl8dg5VgNK2BOj60-6" value="ARP" style="text;html=1;strokeColor=none;fillColor=none;align=center;verticalAlign=middle;whiteSpace=wrap;rounded=0;" vertex="1" parent="t4UdVl8dg5VgNK2BOj60-1">
          <mxGeometry x="574" y="652" width="40" height="20" as="geometry" />
        </mxCell>
        <mxCell id="t4UdVl8dg5VgNK2BOj60-7" value="运输层（TCP/UDP）" style="rounded=1;whiteSpace=wrap;html=1;fillColor=#f8cecc;strokeColor=#b85450;treeFolding=0;treeMoving=0;comic=1;" vertex="1" parent="t4UdVl8dg5VgNK2BOj60-1">
          <mxGeometry x="370" y="594" width="256" height="21" as="geometry" />
        </mxCell>
        <mxCell id="t4UdVl8dg5VgNK2BOj60-8" value="" style="rounded=1;whiteSpace=wrap;html=1;comic=1;" vertex="1" parent="t4UdVl8dg5VgNK2BOj60-1">
          <mxGeometry x="256" y="576" width="47" height="15" as="geometry" />
        </mxCell>
        <mxCell id="t4UdVl8dg5VgNK2BOj60-9" value="" style="rounded=1;whiteSpace=wrap;html=1;comic=1;" vertex="1" parent="t4UdVl8dg5VgNK2BOj60-1">
          <mxGeometry x="256" y="594" width="47" height="15" as="geometry" />
        </mxCell>
        <mxCell id="t4UdVl8dg5VgNK2BOj60-10" value="" style="rounded=1;whiteSpace=wrap;html=1;comic=1;" vertex="1" parent="t4UdVl8dg5VgNK2BOj60-1">
          <mxGeometry x="256" y="614" width="47" height="15" as="geometry" />
        </mxCell>
        <mxCell id="t4UdVl8dg5VgNK2BOj60-11" value="" style="rounded=1;whiteSpace=wrap;html=1;comic=1;fillColor=#f8cecc;strokeColor=#b85450;" vertex="1" parent="t4UdVl8dg5VgNK2BOj60-1">
          <mxGeometry x="256" y="632" width="47" height="15" as="geometry" />
        </mxCell>
        <mxCell id="t4UdVl8dg5VgNK2BOj60-18" style="edgeStyle=elbowEdgeStyle;rounded=0;orthogonalLoop=1;jettySize=auto;elbow=vertical;html=1;exitX=1;exitY=0.5;exitDx=0;exitDy=0;" edge="1" parent="t4UdVl8dg5VgNK2BOj60-1" source="t4UdVl8dg5VgNK2BOj60-12" target="t4UdVl8dg5VgNK2BOj60-2">
          <mxGeometry relative="1" as="geometry" />
        </mxCell>
        <mxCell id="t4UdVl8dg5VgNK2BOj60-12" value="" style="rounded=1;whiteSpace=wrap;html=1;comic=1;fillColor=#fff2cc;strokeColor=#d6b656;" vertex="1" parent="t4UdVl8dg5VgNK2BOj60-1">
          <mxGeometry x="256" y="652" width="47" height="15" as="geometry" />
        </mxCell>
        <mxCell id="t4UdVl8dg5VgNK2BOj60-13" value="" style="rounded=1;whiteSpace=wrap;html=1;comic=1;fillColor=#f8cecc;strokeColor=#b85450;" vertex="1" parent="t4UdVl8dg5VgNK2BOj60-1">
          <mxGeometry x="256" y="670" width="47" height="15" as="geometry" />
        </mxCell>
        <mxCell id="t4UdVl8dg5VgNK2BOj60-14" value="" style="rounded=1;whiteSpace=wrap;html=1;comic=1;" vertex="1" parent="t4UdVl8dg5VgNK2BOj60-1">
          <mxGeometry x="256" y="690" width="47" height="15" as="geometry" />
        </mxCell>
        <mxCell id="t4UdVl8dg5VgNK2BOj60-17" value="数据链路层" style="rounded=1;whiteSpace=wrap;html=1;fillColor=#f8cecc;strokeColor=#b85450;treeFolding=0;treeMoving=0;comic=1;" vertex="1" parent="t4UdVl8dg5VgNK2BOj60-1">
          <mxGeometry x="369" y="681" width="256" height="21" as="geometry" />
        </mxCell>
      </root>
    </mxGraphModel>
  </diagram>
</mxfile>
